#!OML:ASF H:\ManfredETheater\Project 1\Capture day 1\Session 1\subject.ASF
:FULLY-SPECIFIED
:DEGREES
305
root -7.11734 9.35827 1.52685 -43.2011 78.4349 -47.1244
lowerback 63.6967 -9.58618 2.36006
upperback 13.1912 -5.65446 3.36517
thorax -6.25943 -1.75443 5.0841
lowerneck 9.5139 -19.1953 -17.1144
upperneck -7.41576 -26.9982 21.0412
head 1.53963 -14.1328 8.07611
rclavicle 6.83819e-014 -9.54166e-014
rhumerus -28.6447 -2.30772 -73.5242
rradius 90.7995
rwrist -20.8409
rhand -23.8783 -9.65582
rfingers 7.12502
rthumb 2.59485 -39.6198
lclavicle 6.83819e-014 -9.54166e-014
lhumerus -24.3 9.37501 29.8065
lradius 107.243
lwrist 5.42223
lhand -13.7606 -0.0253323
lfingers 7.12502
lthumb 12.36 29.5893
rfemur -95.4958 -55.6918 23.0667
rtibia 134.171
rfoot -16.4606 13.7598
rtoes -24.0546
lfemur -94.9166 48.2168 -9.12859
ltibia 134.908
lfoot -33.1703 -29.8426
ltoes -11.0246
306
root -7.12257 9.30668 1.61408 -45.4536 77.9337 -49.28
lowerback 63.3157 -9.47907 2.41073
upperback 13.2122 -5.54965 3.51382
thorax -6.23725 -1.7331 5.17767
lowerneck 9.46727 -19.1111 -17.0627
upperneck -7.1108 -26.8919 20.8666
head 1.58277 -14.0663 8.01826
rclavicle -1.59028e-014 2.38542e-014
rhumerus -28.6899 -2.41516 -73.5459
rradius 90.7192
rwrist -20.6736
rhand -23.7973 -9.42581
rfingers 7.12502
rthumb 2.67316 -39.3888
lclavicle -1.59028e-014 2.38542e-014
lhumerus -24.4202 9.44212 29.4468
lradius 107.637
lwrist 5.75026
lhand -13.8924 0.149185
lfingers 7.12502
lthumb 12.2329 29.7714
rfemur -93.7129 -55.1456 20.494
rtibia 133.004
rfoot -16.49 9.476
rtoes -22.1465
lfemur -94.4753 48.7068 -6.95524
ltibia 134.799
lfoot -33.9333 -30.7677
ltoes -13.0832
307
root -7.12899 9.24968 1.70612 -46.0896 77.4946 -49.867
lowerback 62.8106 -9.18588 2.20829
upperback 13.2578 -5.424 3.60243
thorax -6.19054 -1.70702 5.29676
lowerneck 9.41972 -19.0404 -16.9966
upperneck -6.84562 -26.8003 20.7293
head 1.62133 -14.01 7.96877
rclavicle 1.59028e-014 -7.15625e-015
rhumerus -28.7967 -2.58547 -73.5735
rradius 90.7565
rwrist -20.5198
rhand -23.7806 -9.19391
rfingers 7.12502
rthumb 2.68925 -39.1567
lclavicle 1.59028e-014 -7.15625e-015
lhumerus -24.5076 9.54221 29.0758
lradius 108.025
lwrist 5.94462
lhand -14.0962 0.262587
lfingers 7.12502
lthumb 12.0364 29.8965
rfemur -91.7045 -54.0445 17.373
rtibia 131.528
rfoot -16.3133 5.59272
rtoes -19.9652
lfemur -94.3038 49.4233 -5.17717
ltibia 134.755
lfoot -34.2439 -31.9116
ltoes -14.742
308
root -7.13652 9.18855 1.80418 -45.1336 77.0853 -48.8843
lowerback 62.2251 -8.65532 1.70917
upperback 13.3275 -5.23493 3.63766
thorax -6.11898 -1.65891 5.45233
lowerneck 9.36784 -18.988 -16.9195
upperneck -6.63172 -26.7292 20.6396
head 1.6554 -13.9673 7.93007
rclavicle 2.70347e-014 1.59028e-015
rhumerus -28.9796 -2.8228 -73.5954
rradius 90.9355
rwrist -20.386
rhand -23.8454 -8.97979
rfingers 7.12502
rthumb 2.62663 -38.9434
lclavicle 2.70347e-014 1.59028e-015
lhumerus -24.5535 9.67298 28.7077
lradius 108.415
lwrist 5.96943
lhand -14.3451 0.325794
lfingers 7.12502
lthumb 11.7963 29.9736
rfemur -89.543 -52.3075 13.8684
rtibia 129.717
rfoot -16.0483 2.63844
rtoes -18.4747
lfemur -94.3149 50.4822 -3.8105
ltibia 134.782
lfoot -34.2857 -33.0203
ltoes -16.2785
309
root -7.14494 9.12593 1.90847 -42.8213 76.6386 -46.5176
lowerback 61.6375 -7.8719 0.911057
upperback 13.4128 -4.94611 3.63191
thorax -6.03037 -1.5726 5.64964
lowerneck 9.31535 -18.954 -16.8408
upperneck -6.48451 -26.6796 20.6101
head 1.68312 -13.9391 7.90755
rclavicle 4.92986e-014 9.46215e-014
rhumerus -29.2408 -3.12526 -73.5928
rradius 91.2659
rwrist -20.2644
rhand -23.9769 -8.79449
rfingers 7.12502
rthumb 2.49962 -38.7596
lclavicle 4.92986e-014 9.46215e-014
lhumerus -24.5518 9.84688 28.3788
lradius 108.797
lwrist 5.79029
lhand -14.6272 0.338728
lfingers 7.12502
lthumb 11.5243 30.0019
rfemur -87.2865 -49.9032 10.1803
rtibia 127.552
rfoot -15.8447 0.974699
rtoes -18.7201
lfemur -94.3273 51.9438 -2.74822
ltibia 134.861
lfoot -34.1429 -34.0922
ltoes -17.4255
310
root -7.15387 9.06347 2.01781 -39.6214 76.0927 -43.1806
lowerback 61.1354 -6.8711 -0.133192
upperback 13.4986 -4.54555 3.59889
thorax -5.94051 -1.44043 5.88241
lowerneck 9.26169 -18.9391 -16.7701
upperneck -6.41048 -26.6528 20.6469
head 1.70498 -13.926 7.90389
rclavicle 4.77083e-014 2.70347e-014
rhumerus -29.574 -3.47847 -73.5455
rradius 91.7475
rwrist -20.1626
rhand -24.1825 -8.6295
rfingers 7.12502
rthumb 2.30111 -38.5968
lclavicle 4.77083e-014 2.70347e-014
lhumerus -24.5072 10.0584 28.1026
lradius 109.179
lwrist 5.43687
lhand -14.9625 0.300431
lfingers 7.12502
lthumb 11.2009 29.9814
rfemur -84.997 -46.9342 6.55625
rtibia 125.058
rfoot -15.7641 0.521987
rtoes -21.1025
lfemur -94.1509 53.799 -1.80912
ltibia 134.98
lfoot -33.9554 -35.0336
ltoes -18.2347
311
root -7.16268 9.00159 2.13019 -36.0932 75.427 -39.4114
lowerback 60.7552 -5.73241 -1.327
upperback 13.574 -4.0567 3.54744
thorax -5.86142 -1.26933 6.13126
lowerneck 9.20118 -18.939 -16.7247
upperneck -6.39927 -26.6447 20.7505
head 1.72652 -13.9254 7.92014
rclavicle -4.13472e-014 2.94201e-014
rhumerus -29.9613 -3.86099 -73.4445
rradius 92.364
rwrist -20.0651
rhand -24.453 -8.48421
rfingers 7.12502
rthumb 2.0399 -38.4542
lclavicle -4.13472e-014 2.94201e-014
lhumerus -24.4286 10.3157 27.9002
lradius 109.556
lwrist 4.94584
lhand -15.3272 0.241719
lfingers 7.12502
lthumb 10.8492 29.9415
rfemur -82.7451 -43.6355 3.21051
rtibia 122.328
rfoot -15.8941 0.993718
rtoes -24.8694
lfemur -93.6521 55.953 -0.810038
ltibia 135.12
lfoot -33.756 -35.8943
ltoes -18.5453
312
root -7.17095 8.9399 2.24363 -32.7265 74.6654 -35.6992
lowerback 60.51 -4.54708 -2.56525
upperback 13.6303 -3.51987 3.48532
thorax -5.80325 -1.07381 6.37515
lowerneck 9.1252 -18.9477 -16.716
upperneck -6.43146 -26.6485 20.9103
head 1.75343 -13.9324 7.95347
rclavicle -3.18055e-015 -1.43125e-014
rhumerus -30.3809 -4.24772 -73.2864
rradius 93.0903
rwrist -19.9706
rhand -24.7714 -8.34562
rfingers 7.12502
rthumb 1.73233 -38.3183
lclavicle -3.18055e-015 -1.43125e-014
lhumerus -24.3344 10.6115 27.7826
lradius 109.921
lwrist 4.39522
lhand -15.7766 0.108201
lfingers 7.12502
lthumb 10.4157 29.8302
rfemur -80.5643 -40.2846 0.252882
rtibia 119.515
rfoot -16.2673 2.10272
rtoes -29.564
lfemur -92.7366 58.2617 0.405758
ltibia 135.259
lfoot -33.6674 -36.6424
ltoes -18.5516
313
root -7.17837 8.87893 2.35615 -29.8777 73.8711 -32.4047
lowerback 60.4196 -3.40748 -3.74163
upperback 13.6573 -2.98051 3.41964
thorax -5.77913 -0.870424 6.59154
lowerneck 9.02386 -18.9621 -16.7511
upperneck -6.47994 -26.6613 21.1129
head 1.79366 -13.9437 7.99876
rclavicle 4.77083e-015 2.62396e-014
rhumerus -30.8112 -4.62217 -73.0683
rradius 93.8947
rwrist -19.8727
rhand -25.1273 -8.2067
rfingers 7.12502
rthumb 1.38858 -38.1819
lclavicle 4.77083e-015 2.62396e-014
lhumerus -24.2379 10.9286 27.755
lradius 110.28
lwrist 3.87028
lhand -16.2962 -0.0486691
lfingers 7.12502
lthumb 9.91444 29.6979
rfemur -78.5231 -37.182 -2.28533
rtibia 116.883
rfoot -16.9415 3.72261
rtoes -33.6008
lfemur -91.2975 60.5387 2.00722
ltibia 135.368
lfoot -33.7268 -37.314
ltoes -18.2889
314
root -7.18516 8.81862 2.466 -27.6902 73.1384 -29.697
lowerback 60.4771 -2.4002 -4.76918
upperback 13.6501 -2.49211 3.35284
thorax -5.79445 -0.680172 6.76364
lowerneck 8.89698 -18.9773 -16.8313
upperneck -6.52659 -26.6778 21.3462
head 1.84998 -13.9558 8.05265
rclavicle 2.06736e-014 6.52014e-014
rhumerus -31.2307 -4.97171 -72.7919
rradius 94.7429
rwrist -19.7612
rhand -25.5024 -8.06732
rfingers 7.12502
rthumb 1.02638 -38.0446
lclavicle 2.06736e-014 6.52014e-014
lhumerus -24.15 11.2458 27.8149
lradius 110.636
lwrist 3.42782
lhand -16.8778 -0.175613
lfingers 7.12502
lthumb 9.35329 29.5969
rfemur -76.6646 -34.5145 -4.38752
rtibia 114.604
rfoot -17.945 5.41282
rtoes -37.3445
lfemur -89.3385 62.5815 4.0422
ltibia 135.426
lfoot -33.9551 -37.918
ltoes -17.8678
315
root -7.19181 8.75808 2.57178 -26.1723 72.5604 -27.6046
lowerback 60.6878 -1.59399 -5.58704
upperback 13.6024 -2.10224 3.28481
thorax -5.85551 -0.521881 6.88197
lowerneck 8.7441 -18.9898 -16.9537
upperneck -6.55621 -26.6937 21.5929
head 1.92316 -13.9653 8.11016
rclavicle -4.13472e-014 -7.15625e-014
rhumerus -31.6226 -5.28456 -72.464
rradius 95.6003
rwrist -19.6102
rhand -25.8956 -7.94272
rfingers 7.12502
rthumb 0.646625 -37.9215
lclavicle -4.13472e-014 -7.15625e-014
lhumerus -24.0808 11.5405 27.9552
lradius 110.985
lwrist 3.11319
lhand -17.5076 -0.267041
lfingers 7.12502
lthumb 8.74557 29.5318
rfemur -75.0223 -32.4545 -6.0919
rtibia 112.852
rfoot -19.1268 6.69936
rtoes -40.4671
lfemur -86.9544 64.2187 6.45729
ltibia 135.425
lfoot -34.3463 -38.4467
ltoes -17.4127
316
root -7.19922 8.69834 2.67424 -25.2731 72.1717 -26.0563
lowerback 61.1033 -0.988473 -6.20161
upperback 13.5061 -1.81857 3.22201
thorax -5.97139 -0.398841 6.95854
lowerneck 8.5669 -18.9957 -17.1126
upperneck -6.55722 -26.7038 21.8407
head 2.01271 -13.9691 8.16799
rclavicle 2.70347e-014 3.89618e-014
rhumerus -31.9695 -5.55715 -72.092
rradius 96.437
rwrist -19.4493
rhand -26.2771 -7.81681
rfingers 7.12502
rthumb 0.278119 -37.7964
lclavicle 2.70347e-014 3.89618e-014
lhumerus -24.0398 11.801 28.1577
lradius 111.316
lwrist 2.93389
lhand -18.1413 -0.289455
lfingers 7.12502
lthumb 8.134 29.534
rfemur -73.626 -31.0318 -7.42869
rtibia 111.742
rfoot -20.395 7.4602
rtoes -42.9343
lfemur -84.1578 65.3653 9.2463
ltibia 135.345
lfoot -34.8946 -38.9249
ltoes -17.0246
